<svg id="Layer_1" data-name="Layer 1" xmlns="http://www.w3.org/2000/svg" xmlns:xlink="http://www.w3.org/1999/xlink" viewBox="0 0 317.8 215.27"><defs><style>.cls-1{fill:url(#linear-gradient);}</style><linearGradient id="linear-gradient" x1="282.03" y1="290.71" x2="33.29" y2="81.99" gradientUnits="userSpaceOnUse"><stop offset="0" stop-color="#8611c0"/><stop offset="1" stop-color="#2272fc"/></linearGradient></defs><path class="cls-1" d="M254.49,241.49c-28.2,0-50.2-19.8-50.2-56.9,0-34.9,19.9-56.9,50.2-56.9,23.6,0,40.8,12.8,45.4,37.1l37.1-3.2c-6.2-40.6-39.9-65.3-81.4-65.3-19.44,0-36.85,4.88-50.93,14L217.6,81.53,193,70.46,117.26,238.89H54.69v-41.3h64.7v-30.5H54.69V130h74.5V98.79h-110v171.5h84l-2,4.37,24.62,11.07L168.38,191c2.78,51.42,39,81.88,87.21,81.88,41.5,0,74.8-24.6,81.4-64.7l-37.1-3.2C295.29,228.89,277.89,241.49,254.49,241.49Z" transform="translate(-19.19 -70.46)"/></svg>