<svg id="Layer_1" data-name="Layer 1" xmlns="http://www.w3.org/2000/svg" viewBox="0 0 1424.86 1002.17"><path d="M871.62-699" transform="translate(-9.52 738.59)"/><path d="M368.54-420.64a4.91,4.91,0,0,0,6.83-3.09,107,107,0,0,0,4.54-35.49,95.94,95.94,0,0,0-9.18-36.9A106,106,0,0,0,348-527.27a132.61,132.61,0,0,0-34.77-23.57q-30.62-14.62-61.79-12.33T193.19-541q-20.61,15.12-36.05,40.82a4.92,4.92,0,0,1-4.21,2.4H68.83a4.9,4.9,0,0,1-4.9-4.9v-51.65a4.89,4.89,0,0,1,4.9-4.89H169.11a4.9,4.9,0,0,0,4.89-4.9v-35.06a4.89,4.89,0,0,0-4.89-4.9H68.83a4.9,4.9,0,0,1-4.9-4.9v-51.53a4.89,4.89,0,0,1,4.9-4.89H178a4.91,4.91,0,0,0,4.9-4.9v-35.06a4.9,4.9,0,0,0-4.9-4.9H14.42a4.9,4.9,0,0,0-4.9,4.9v247.54a4.9,4.9,0,0,0,4.9,4.9H130.2a4.89,4.89,0,0,1,4.72,6.05,127.61,127.61,0,0,0-3.6,34.93q1.38,33.39,19.1,59.12t48.78,40.58q22.34,10.67,43.31,12.4a106.36,106.36,0,0,0,39.39-3.74A102.94,102.94,0,0,0,315-320.24a100.29,100.29,0,0,0,21-21.37,4.91,4.91,0,0,0-1.83-7.3L293-368.85a4.4,4.4,0,0,0-5.32,1.21,52.57,52.57,0,0,1-11.86,10.9A48.7,48.7,0,0,1,259-349.67a52.57,52.57,0,0,1-18.68.48,68.59,68.59,0,0,1-19.56-6.15q-17.56-8.39-26.83-23.4t-8.62-35.45q.65-20.44,12.51-45.27,11.53-24.15,27-37.58T257.91-513q17.63-2.5,35.66,6.1a65.07,65.07,0,0,1,17.18,11.7A52.66,52.66,0,0,1,322-479.79a48.76,48.76,0,0,1,4.62,18A52.59,52.59,0,0,1,325.1-446a5.33,5.33,0,0,0,2.92,6Z" transform="translate(-9.52 738.59)"/><path d="M199.62-699" transform="translate(-9.52 738.59)"/><path d="M646.65-462.62V-657.85H778.2v34H687.92v46.52h83.51v34H687.92v46.61h90.66v34Z" transform="translate(-9.52 738.59)"/><path d="M769.79-543.37V-738.59h77q22.11,0,37.79,7.86a55.54,55.54,0,0,1,23.93,22.21q8.25,14.35,8.25,33.7t-8.39,33.41A54.41,54.41,0,0,1,884.14-620q-15.87,7.44-38.37,7.44H794.2v-33.18h44.89q11.82,0,19.64-3.24a23.59,23.59,0,0,0,11.68-9.72q3.86-6.48,3.86-16.11t-3.86-16.4a24.5,24.5,0,0,0-11.73-10.15q-7.86-3.48-19.78-3.48H811.07v161.48Zm105.43-88.84,48.52,88.84H878.18l-47.47-88.84Z" transform="translate(-9.52 738.59)"/><path d="M958.29-663.27V-468H917V-663.27Z" transform="translate(-9.52 738.59)"/><path d="M1091.69-491.86h-41.75a41.24,41.24,0,0,0-4.67-14.44,36.75,36.75,0,0,0-9.06-10.82,39.92,39.92,0,0,0-12.72-6.87,49.6,49.6,0,0,0-15.59-2.38q-15.15,0-26.4,7.48t-17.45,21.74q-6.19,14.25-6.2,34.55,0,20.88,6.25,35.08t17.49,21.45a47,47,0,0,0,26,7.25A51.73,51.73,0,0,0,1023-401a39.86,39.86,0,0,0,12.63-6.43,36.94,36.94,0,0,0,9.2-10.34,41.2,41.2,0,0,0,5.1-13.92l41.75.19a75.62,75.62,0,0,1-8,25.88,78.07,78.07,0,0,1-17.26,22.21A80.61,80.61,0,0,1,1040.65-368q-14.93,5.67-33.7,5.68-26.13,0-46.66-11.82t-32.42-34.23Q916-430.75,916-462.6t12-54.33q12-22.41,32.6-34.18T1007-562.88a100.47,100.47,0,0,1,31.5,4.77,80.44,80.44,0,0,1,25.79,13.87A72.83,72.83,0,0,1,1082.59-522,83.37,83.37,0,0,1,1091.69-491.86Z" transform="translate(-9.52 738.59)"/><path d="M10.9,228.51v-175H128.8V84H47.9v41.7h74.84v30.5H47.9V198l59.48-.32-19,29Z" transform="translate(-9.52 738.59)"/><path d="M230.84,25.93,68.57,263.57,57.63,256.1,219.9,18.47Z" transform="translate(-9.52 738.59)"/><path d="M303.27,114.79H265.85a37.11,37.11,0,0,0-4.19-12.94,33,33,0,0,0-8.12-9.7A35.6,35.6,0,0,0,242.14,86a44,44,0,0,0-14-2.14q-13.59,0-23.67,6.71t-15.63,19.48q-5.55,12.77-5.55,31,0,18.71,5.59,31.44t15.68,19.22a42.1,42.1,0,0,0,23.32,6.5,46.54,46.54,0,0,0,13.8-2A35.8,35.8,0,0,0,253,190.45a33.19,33.19,0,0,0,8.25-9.27,37.08,37.08,0,0,0,4.57-12.48l37.42.17a68,68,0,0,1-7.22,23.2A70.13,70.13,0,0,1,280.59,212a72.66,72.66,0,0,1-23.07,13.84,84.71,84.71,0,0,1-30.2,5.08q-23.41,0-41.83-10.59t-29-30.68Q145.8,169.56,145.81,141c0-19.08,16.4-30,23.57-43.33,4.67-8.71,10-15.92,14-23,2.15-3.81,1.7-4.54,6-7,2.55-1.46,1.57-8.76,4.25-9.92a84.25,84.25,0,0,1,33.69-6.63,90,90,0,0,1,28.23,4.27,72,72,0,0,1,23.11,12.43,65.19,65.19,0,0,1,16.45,20A74.87,74.87,0,0,1,303.27,114.79Z" transform="translate(-9.52 738.59)"/><path d="M375.94,231.07q-19.9,0-34.39-8.5a57.47,57.47,0,0,1-22.34-23.75q-7.86-15.25-7.86-35.42,0-20.33,7.86-35.58a57.47,57.47,0,0,1,22.34-23.75q14.49-8.5,34.39-8.5t34.39,8.5a57.47,57.47,0,0,1,22.34,23.75q7.86,15.26,7.86,35.58,0,20.17-7.86,35.42a57.47,57.47,0,0,1-22.34,23.75Q395.84,231.08,375.94,231.07Zm.17-28.19q9.06,0,15.12-5.17a31.78,31.78,0,0,0,9.19-14.14,62.26,62.26,0,0,0,3.11-20.42,62.26,62.26,0,0,0-3.11-20.42,32,32,0,0,0-9.19-14.18q-6.06-5.22-15.12-5.22a23,23,0,0,0-15.34,5.22,31.55,31.55,0,0,0-9.31,14.18,62,62,0,0,0-3.12,20.42,62,62,0,0,0,3.12,20.42,31.31,31.31,0,0,0,9.31,14.14A23.16,23.16,0,0,0,376.11,202.88Z" transform="translate(-9.52 738.59)"/><path d="M561,134.7l-33.32,2.05A17.57,17.57,0,0,0,524,129a20.18,20.18,0,0,0-7.39-5.55,26,26,0,0,0-10.89-2.09,27,27,0,0,0-14.27,3.54c-3.87,2.37-5.81,5.51-5.81,9.45a10.12,10.12,0,0,0,3.76,7.94q3.76,3.25,12.9,5.21L526,152.3q19.14,3.93,28.54,12.64t9.4,22.9a35.87,35.87,0,0,1-7.56,22.64q-7.56,9.74-20.68,15.17t-30.2,5.42q-26.06,0-41.48-10.89A42.07,42.07,0,0,1,446,190.49l35.8-1.88a18.23,18.23,0,0,0,7.86,12.09q6.24,4.14,16,4.14,9.57,0,15.43-3.71t5.94-9.62a10.2,10.2,0,0,0-4.19-8.16q-4.11-3.19-12.65-4.91l-22.72-4.53q-19.23-3.84-28.58-13.33t-9.36-24.17q0-12.64,6.88-21.79t19.4-14.1q12.51-5,29.34-5,24.87,0,39.18,10.51T561,134.7Z" transform="translate(-9.52 738.59)"/><path d="M633.71,231.07q-20.16,0-34.64-8.59a57.07,57.07,0,0,1-22.22-23.88q-7.73-15.28-7.73-35.2,0-20.16,7.82-35.41a57.81,57.81,0,0,1,22.26-23.84q14.43-8.58,34.34-8.58,17.18,0,30.08,6.23A50.34,50.34,0,0,1,684,119.32q7.51,11.28,8.28,26.48H658Q656.53,136,650.33,130t-16.19-6a24.43,24.43,0,0,0-14.74,4.57q-6.28,4.58-9.78,13.29t-3.5,21.1q0,12.56,3.46,21.36t9.78,13.42a26,26,0,0,0,26,2.05,21.87,21.87,0,0,0,8.28-7.48A28.64,28.64,0,0,0,658,180.41h34.34a53.79,53.79,0,0,1-8.16,26.44A49.71,49.71,0,0,1,664,224.66Q651.23,231.08,633.71,231.07Z" transform="translate(-9.52 738.59)"/><path d="M762.52,231.07q-19.92,0-34.39-8.5a57.41,57.41,0,0,1-22.34-23.75q-7.87-15.25-7.86-35.42,0-20.33,7.86-35.58a57.41,57.41,0,0,1,22.34-23.75q14.48-8.5,34.39-8.5t34.39,8.5a57.47,57.47,0,0,1,22.34,23.75q7.86,15.26,7.86,35.58,0,20.17-7.86,35.42a57.47,57.47,0,0,1-22.34,23.75Q782.42,231.08,762.52,231.07Zm.17-28.19a22.54,22.54,0,0,0,15.12-5.17A31.85,31.85,0,0,0,787,183.57a62,62,0,0,0,3.12-20.42A62,62,0,0,0,787,142.73a32.11,32.11,0,0,0-9.18-14.18q-6.06-5.22-15.12-5.22a23,23,0,0,0-15.34,5.22A31.55,31.55,0,0,0,738,142.73a62,62,0,0,0-3.12,20.42A62,62,0,0,0,738,183.57a31.31,31.31,0,0,0,9.31,14.14A23.16,23.16,0,0,0,762.69,202.88Z" transform="translate(-9.52 738.59)"/><path d="M874.74,53.53v175H838.35v-175Z" transform="translate(-9.52 738.59)"/><path d="M927.67,53.53v175H891.28v-175Z" transform="translate(-9.52 738.59)"/><path d="M1028.37,172.63V97.28h36.39V228.51h-34.94V204.67h-1.37a38.78,38.78,0,0,1-14.74,18.54q-10.29,7-25.07,7a44.33,44.33,0,0,1-23.16-6,40.88,40.88,0,0,1-15.59-17q-5.6-11-5.68-26.4V97.28h36.4v77.06q.07,11.63,6.23,18.37t16.49,6.75a25.93,25.93,0,0,0,12.31-3,23.59,23.59,0,0,0,9.27-9Q1028.45,181.44,1028.37,172.63Z" transform="translate(-9.52 738.59)"/><path d="M1141.11,231.07q-20.25,0-34.82-8.24a55.8,55.8,0,0,1-22.43-23.41q-7.86-15.16-7.86-35.93,0-20.25,7.86-35.54A58,58,0,0,1,1106,104.11q14.31-8.55,33.62-8.54a69.59,69.59,0,0,1,24.23,4.14,54.71,54.71,0,0,1,19.65,12.43A56.61,56.61,0,0,1,1196.64,133q4.69,12.51,4.7,29.26v10H1090.53V149.65h76.55a27.9,27.9,0,0,0-3.42-13.93,24.81,24.81,0,0,0-9.44-9.52,27.52,27.52,0,0,0-14-3.46,28,28,0,0,0-14.65,3.8,27.17,27.17,0,0,0-9.95,10.16,28.94,28.94,0,0,0-3.68,14.14v21.45a36.52,36.52,0,0,0,3.63,16.83,26,26,0,0,0,10.3,10.94,31.11,31.11,0,0,0,15.8,3.84,34.39,34.39,0,0,0,11.11-1.71,23,23,0,0,0,8.63-5.12,22.39,22.39,0,0,0,5.47-8.38l33.66,2.22a46,46,0,0,1-10.46,21.15,52.63,52.63,0,0,1-20.34,14Q1157.34,231.07,1141.11,231.07Z" transform="translate(-9.52 738.59)"/><path d="M1249,53.53v175h-36.4v-175Z" transform="translate(-9.52 738.59)"/><path d="M1302.93,231a54.27,54.27,0,0,1-22.38-4.39A35.41,35.41,0,0,1,1265,213.51q-5.68-8.67-5.68-21.65,0-11,4-18.37a32.55,32.55,0,0,1,10.93-12,53.31,53.31,0,0,1,15.77-6.83,118.77,118.77,0,0,1,18.58-3.25q11.44-1.19,18.45-2.26t10.17-3.21a7.12,7.12,0,0,0,3.16-6.32v-.51q0-8.12-5.08-12.56t-14.4-4.44q-9.82,0-15.63,4.31a20.21,20.21,0,0,0-7.69,10.81L1264,134.53a45.85,45.85,0,0,1,10.08-20.72,48.87,48.87,0,0,1,19.43-13.5q11.92-4.74,27.64-4.74a84.5,84.5,0,0,1,21,2.56,55.43,55.43,0,0,1,17.86,8,38.79,38.79,0,0,1,12.34,13.79q4.53,8.41,4.53,20.12v88.52h-34.52v-18.2h-1a36.66,36.66,0,0,1-8.46,10.81,38.3,38.3,0,0,1-12.73,7.26A51.8,51.8,0,0,1,1302.93,231Zm10.43-25.11a30.22,30.22,0,0,0,14.18-3.21,24.67,24.67,0,0,0,9.65-8.67,22.41,22.41,0,0,0,3.51-12.39V167.68a18.32,18.32,0,0,1-4.66,2q-2.94.9-6.62,1.63t-7.35,1.28q-3.67.56-6.66,1a45.05,45.05,0,0,0-11.19,3,18.13,18.13,0,0,0-7.44,5.51,13.76,13.76,0,0,0-2.65,8.59q0,7.43,5.43,11.32C1303.18,204.57,1307.77,205.87,1313.36,205.87Z" transform="translate(-9.52 738.59)"/><path d="M1413.88,230.73a20.57,20.57,0,0,1-20.51-20.51,19.5,19.5,0,0,1,6-14.35,20.36,20.36,0,0,1,28.83,0,19.88,19.88,0,0,1,3.29,24.65,21.94,21.94,0,0,1-7.47,7.43A19.38,19.38,0,0,1,1413.88,230.73Z" transform="translate(-9.52 738.59)"/></svg>